<?xml version="1.0" standalone="no"?><!DOCTYPE svg PUBLIC "-//W3C//DTD SVG 1.1//EN" "http://www.w3.org/Graphics/SVG/1.1/DTD/svg11.dtd"><svg t="1563805156482" class="icon" viewBox="0 0 1024 1024" version="1.1" xmlns="http://www.w3.org/2000/svg" p-id="3079" xmlns:xlink="http://www.w3.org/1999/xlink" width="128" height="128"><defs><style type="text/css"></style></defs><path d="M1002.474054 534.377999l-120.682516-120.682516a21.973306 21.973306 0 0 0-30.165296 0l-316.778271 316.799604a169.727788 169.727788 0 0 1-120.703849 49.983937 169.557121 169.557121 0 0 1-120.682515-49.983937c-66.538583-66.538583-66.538583-174.805115 0-241.365032l316.799604-316.77827a21.333307 21.333307 0 0 0 0-30.165296l-120.682516-120.682516a21.311973 21.311973 0 0 0-30.165296 0L112.448499 368.468873c-149.717146 149.717146-149.717146 393.343508 0 543.060654A381.61019 381.61019 0 0 0 384.00016 1023.99872a381.439523 381.439523 0 0 0 271.508994-112.469193l346.9649-346.986233a21.269307 21.269307 0 0 0 0-30.165295zM474.496047 66.751917l90.51722 90.538553-60.351924 60.351925-90.517221-90.517221 60.351925-60.373257z m150.847811 814.590981C560.874606 945.812151 475.178713 981.332107 384.00016 981.332107s-176.895779-35.519956-241.386365-99.989209c-133.055834-133.077167-133.055834-349.631563 0-482.730063L383.957493 157.29047l90.538554 90.51722-211.199736 211.178403c-83.178563 83.178563-83.178563 218.51706 0 301.695623a212.010402 212.010402 0 0 0 150.847811 62.485255 212.010402 212.010402 0 0 0 150.869145-62.485255l211.157069-211.178403 90.517221 90.51722-241.343699 241.322365zM896.852852 609.855238l-90.51722-90.517221 60.373258-60.373257 90.51722 90.51722-60.373258 60.373258z" fill="#231F20" p-id="3080"></path></svg>