<?xml version="1.0" standalone="no"?><!DOCTYPE svg PUBLIC "-//W3C//DTD SVG 1.1//EN" "http://www.w3.org/Graphics/SVG/1.1/DTD/svg11.dtd"><svg t="1563949112072" class="icon" viewBox="0 0 1024 1024" version="1.1" xmlns="http://www.w3.org/2000/svg" p-id="6868" xmlns:xlink="http://www.w3.org/1999/xlink" width="128" height="128"><defs><style type="text/css"></style></defs><path d="M640 682.666667m-213.333333 0a213.333333 213.333333 0 1 0 426.666666 0 213.333333 213.333333 0 1 0-426.666666 0Z" fill="#A0C5FF" opacity=".675" p-id="6869"></path><path d="M384 359.509333v78.464h256v-78.506666z" fill="#FF5858" opacity=".675" p-id="6870"></path><path d="M554.666667 459.306667h-85.461334v95.744a21.333333 21.333333 0 0 1-42.666666 0v-95.744h-27.093334c-60.544 199.808-135.210667 345.301333-224.768 436.394666 211.626667 106.154667 415.530667 104.448 595.925334 37.461334a645.546667 645.546667 0 0 0 71.893333-31.573334c-88.746667-91.690667-161.28-239.104-218.325333-442.282666H597.333333v95.744a21.333333 21.333333 0 1 1-42.666666 0v-95.744z m106.666666-25.728c60.074667 219.562667 137.386667 371.84 230.912 456.789333a21.333333 21.333333 0 0 1-3.242666 34.005333c-25.002667 15.274667-56.021333 31.146667-103.552 48.810667-195.626667 72.618667-417.877333 72.661333-647.04-48.170667a21.248 21.248 0 0 1-8.448-7.978666 21.333333 21.333333 0 0 1-3.413334-34.133334C220.074667 797.824 299.093333 647.978667 362.666667 433.365333V368.341333c-118.314667-107.861333-116.224-225.322667 6.4-340.906666a21.333333 21.333333 0 0 1 32.853333 3.712l110.250667 164.096 108.16-160.853334A21.333333 21.333333 0 0 1 640.170667 21.333333a21.248 21.248 0 0 1 17.237333 8.32c127.274667 116.949333 128.768 236.117333 3.925333 345.173334v58.752zM392.874667 338.176h245.504c95.232-85.845333 97.237333-169.941333 5.546666-262.357333l-114.048 169.557333a21.333333 21.333333 0 0 1-35.413333 0L380.714667 75.946667c-87.296 92.16-83.242667 176.341333 12.16 262.186666z m12.714666 42.666667a21.333333 21.333333 0 0 1-0.256 0.213333v35.584h213.333334v-35.84H405.589333zM448 640a21.333333 21.333333 0 1 1 0-42.666667 21.333333 21.333333 0 0 1 0 42.666667z m128 0a21.333333 21.333333 0 1 1 0-42.666667 21.333333 21.333333 0 0 1 0 42.666667z" fill="#3C4765" p-id="6871"></path></svg>